<svg width="0" height="0" class="hidden">
  <symbol fill="none" xmlns="http://www.w3.org/2000/svg" viewBox="0 0 116 26" id="logo">
    <path d="M7.59623 8.13909H12.12V12.3646H7.59623V25.5334H2.47267V12.3646H0V8.13909H2.47267V7.36288C2.47267 5.01557 3.11461 3.20125 4.39822 1.91994C5.6821 0.638357 7.43215 -0.00162191 9.64756 3.08675e-06C10.8478 3.08675e-06 11.8035 0.187961 12.5141 0.563607V4.93242C11.9038 4.61522 11.2232 4.45632 10.5351 4.47038C9.78339 4.446 9.04637 4.68217 8.44925 5.13798C7.88094 5.58946 7.59651 6.34102 7.59651 7.39294V8.13909H7.59623ZM30.1421 21.3839C29.4357 22.7911 28.3375 23.9655 26.9788 24.7664C25.6023 25.5883 23.9593 26 22.0498 26C20.771 26.0151 19.501 25.7877 18.3074 25.33C17.215 24.9097 16.2222 24.2678 15.3919 23.445C14.5642 22.6148 13.9139 21.626 13.4802 20.5384C13.0099 19.3629 12.7737 18.1075 12.7847 16.842C12.7744 15.5931 13.0107 14.3543 13.4802 13.1964C13.919 12.1119 14.5678 11.1243 15.3897 10.29C16.2048 9.465 17.1781 8.81196 18.2517 8.36984C19.3885 7.90079 20.6086 7.66516 21.839 7.67705C23.0805 7.6635 24.3125 7.89913 25.4611 8.37011C26.5232 8.80447 27.4811 9.45795 28.2719 10.2876C29.0668 11.1389 29.685 12.1385 30.091 13.2289C30.5374 14.429 30.7589 15.7006 30.7446 16.9804C30.7446 17.2854 30.7446 17.5443 30.7283 17.7545C30.7204 17.9201 30.7026 18.0852 30.6751 18.2488H17.8439C17.8855 18.7428 18.0298 19.2228 18.2677 19.6582C18.5034 20.0831 18.818 20.4594 19.1949 20.767C19.5851 21.0857 20.027 21.3358 20.5016 21.5063C20.9938 21.6856 21.5143 21.7755 22.0381 21.772C23.0039 21.772 23.7694 21.5841 24.3347 21.2084C24.9261 20.8043 25.4207 20.275 25.783 19.6582L30.1421 21.3839ZM25.6903 14.9013C25.5933 14.0006 25.1497 13.1725 24.4529 12.591C23.88 12.1468 23.2028 11.8555 22.4855 11.7447C21.7682 11.634 21.0344 11.7074 20.3535 11.9581C19.4917 12.2986 18.7655 12.9112 18.2862 13.7023C18.0655 14.0672 17.9272 14.4756 17.8808 14.8991L25.6903 14.9013ZM51.3089 8.13909V25.5401H46.2547V23.2161C45.6497 24.1036 44.8132 24.8096 43.8355 25.2582C42.8233 25.7268 41.7187 25.9637 40.6027 25.9515C39.4746 25.9667 38.3573 25.7298 37.333 25.2582C36.3423 24.7959 35.4536 24.1418 34.7188 23.3339C33.9556 22.4918 33.3616 21.5114 32.9693 20.446C32.5379 19.2911 32.3219 18.0673 32.3319 16.835C32.3208 15.6087 32.5368 14.3908 32.9693 13.2427C33.3675 12.1794 33.9608 11.1992 34.7188 10.3523C35.4503 9.53785 36.3395 8.87933 37.333 8.41642C38.3564 7.94092 39.4737 7.70012 40.6027 7.71171C41.7156 7.70305 42.8176 7.93063 43.8355 8.37932C44.8162 8.81133 45.6547 9.51041 46.2547 10.3962V8.13909H51.3089ZM37.4558 16.8396C37.4499 17.4446 37.5706 18.0442 37.8103 18.6C38.0382 19.1302 38.3617 19.6142 38.7649 20.0279C39.1794 20.4494 39.6741 20.7843 40.2201 21.0129C40.766 21.2415 41.3522 21.3593 41.9443 21.3593C42.5365 21.3593 43.1227 21.2415 43.6686 21.0129C44.2145 20.7843 44.7092 20.4494 45.1237 20.0279C45.5263 19.6136 45.8499 19.1298 46.0786 18.6C46.3125 18.0424 46.433 17.444 46.433 16.8396C46.433 16.2352 46.3125 15.6368 46.0786 15.0792C45.8499 14.5495 45.5263 14.0658 45.1237 13.6516C44.7094 13.2298 44.2148 12.8947 43.6688 12.666C43.1229 12.4373 42.5366 12.3195 41.9445 12.3197C41.3522 12.3196 40.766 12.4374 40.22 12.6661C39.674 12.8948 39.1794 13.2299 38.7649 13.6516C38.3618 14.0652 38.0382 14.5491 37.8103 15.0792C37.5708 15.6351 37.45 16.2346 37.4558 16.8396ZM60.743 3.029V8.13936H65.16V12.3646H60.743V18.7411C60.743 19.6809 60.9492 20.3507 61.3618 20.7513C61.7742 21.1515 62.4085 21.3511 63.2643 21.3495C63.598 21.349 63.9303 21.3071 64.2537 21.2249C64.5844 21.1462 64.8984 21.0091 65.1809 20.8203V25.2585C64.7046 25.4731 64.2076 25.6388 63.6976 25.753C63.0013 25.9047 62.2898 25.9751 61.5773 25.9632C59.7389 25.9632 58.2896 25.4296 57.2298 24.362C56.1701 23.2949 55.6325 21.7853 55.617 19.8339V12.3646H53.1467V8.13936H55.617V3.02873H60.743V3.029ZM72.158 25.5401H66.9972V0.880211H72.158V10.3523C72.6784 9.52674 73.4019 8.84754 74.2598 8.37932C75.2035 7.89402 76.2552 7.65555 77.3166 7.68625C79.325 7.68625 80.8976 8.32082 82.0345 9.59021C83.1717 10.8591 83.7425 12.5973 83.7471 14.8043V25.5472H78.5888V15.9597C78.5888 14.8322 78.3177 13.9571 77.7754 13.335C77.2329 12.7126 76.4676 12.4047 75.4788 12.4109C75.0212 12.3918 74.5653 12.4769 74.1456 12.6599C73.726 12.8428 73.3538 13.1187 73.0572 13.4666C72.4576 14.1705 72.158 15.1214 72.158 16.3199V25.5401ZM102.687 21.3839C101.981 22.7905 100.884 23.9647 99.5261 24.7664C98.1466 25.5883 96.5028 26 94.5949 26C93.3153 26.0152 92.0444 25.7878 90.85 25.33C89.758 24.9092 88.7654 24.2674 87.9348 23.445C87.1086 22.6145 86.4597 21.6258 86.0275 20.5384C85.5562 19.3632 85.32 18.1076 85.3323 16.842C85.3206 15.593 85.5569 14.354 86.0275 13.1964C86.4654 12.112 87.1136 11.1244 87.9348 10.29C88.7502 9.46559 89.7233 8.81271 90.7965 8.37011C93.1114 7.45223 95.6909 7.45223 98.0059 8.37011C99.0645 8.80474 100.019 9.45829 100.805 10.2876C101.601 11.1382 102.219 12.138 102.624 13.2289C103.072 14.4288 103.294 15.7004 103.28 16.9804C103.28 17.2857 103.28 17.5443 103.262 17.7545C103.255 17.9202 103.237 18.0854 103.208 18.249H90.3912C90.4306 18.7433 90.5751 19.224 90.8152 19.6582C91.0499 20.0838 91.3646 20.4603 91.7421 20.7672C92.1331 21.0851 92.5749 21.3351 93.0491 21.5066C93.5411 21.6856 94.0616 21.7758 94.5856 21.772C95.5525 21.772 96.3189 21.5843 96.8845 21.2084C97.4758 20.8043 97.9704 20.275 98.3327 19.6582L102.687 21.3839ZM98.2354 14.9013C98.1383 14.0006 97.6947 13.1725 96.998 12.591C96.425 12.1467 95.7478 11.8554 95.0305 11.7447C94.3131 11.6339 93.5793 11.7074 92.8983 11.9581C92.0398 12.301 91.3172 12.9144 90.8408 13.7047C90.6211 14.0699 90.4827 14.478 90.4352 14.9013H98.2354ZM115.868 13.1403C115.453 12.9751 115.007 12.9027 114.561 12.928C113.124 12.928 112.005 13.4214 111.204 14.4089C110.402 15.3961 110.001 16.7462 110.003 18.4586V25.5396H104.879V8.13855H109.966V10.9918C110.401 10.0258 111.099 9.20119 111.982 8.61223C112.877 8.02953 113.926 7.7292 114.995 7.75044C115.177 7.75017 115.36 7.76182 115.541 7.78511C115.653 7.79459 115.763 7.81788 115.868 7.85444V13.1403Z" fill="black"></path>
  </symbol>
  <symbol xmlns="http://www.w3.org/2000/svg" viewBox="0 0 26 25" id="cart">
    <path d="M7 4V3C7 1.35 5.65 0 4 0H0V2H4C4.55 2 5 2.45 5 3V18C5 19.65 6.35 21 8 21H24V19H8C7.45 19 7 18.55 7 18V16.85L23.49 14.26C24.1915 14.1445 24.829 13.7834 25.2888 13.2411C25.7486 12.6989 26.0007 12.0109 26 11.3V4H7ZM24 11.31C24 11.8 23.65 12.22 23.17 12.29L7 14.83V6H24V11.31ZM8 23.5C8 24.33 7.33 25 6.5 25C5.67 25 5 24.33 5 23.5C5 22.67 5.67 22 6.5 22C7.33 22 8 22.67 8 23.5ZM24 23.5C24 24.33 23.33 25 22.5 25C21.67 25 21 24.33 21 23.5C21 22.67 21.67 22 22.5 22C23.33 22 24 22.67 24 23.5Z"></path>
  </symbol>

  <symbol fill="none" xmlns="http://www.w3.org/2000/svg" viewBox="0 0 144 18" id="feather_FLOYD">
    <path d="M4.32756 4.6386H6.9048V7.047H4.32756V14.5521H1.40868V7.047H0V4.6386H1.40868V4.19634C1.40868 2.85858 1.77426 1.82448 2.50578 1.09422C3.23712 0.363602 4.2336 -0.000898337 5.49594 1.66256e-06C6.17994 1.66256e-06 6.72408 0.107102 7.12908 0.321302V2.81106C6.78123 2.63024 6.39352 2.53969 6.00156 2.54772C5.57334 2.53404 5.15358 2.66832 4.81356 2.92824C4.48956 3.18564 4.32756 3.61404 4.32756 4.21344V4.63878V4.6386ZM17.1716 12.1873C16.7688 12.9897 16.1432 13.6591 15.3697 14.1151C14.5854 14.5836 13.6494 14.8181 12.5617 14.8181C11.8331 14.8267 11.1095 14.697 10.4292 14.436C9.8072 14.1966 9.24166 13.8308 8.76834 13.3616C8.29707 12.8888 7.9266 12.3253 7.67934 11.7052C7.41152 11.0354 7.27701 10.3198 7.28334 9.5985C7.27741 8.88662 7.41197 8.18056 7.67934 7.52076C7.92946 6.90248 8.29909 6.33961 8.76708 5.8644C9.23173 5.39407 9.78619 5.02195 10.3975 4.77018C11.0454 4.50279 11.7404 4.36848 12.4412 4.37526C13.1485 4.3674 13.8502 4.50169 14.5046 4.77018C15.1095 5.01758 15.6552 5.39004 16.106 5.86314C16.5587 6.34802 16.911 6.91768 17.1425 7.5393C17.3967 8.22315 17.5229 8.94798 17.5147 9.67752C17.5147 9.85122 17.5147 9.99882 17.5055 10.1185C17.5009 10.213 17.4907 10.3071 17.4749 10.4004H10.1651C10.1889 10.682 10.2713 10.9556 10.4069 11.2036C10.5411 11.4458 10.7203 11.6603 10.9348 11.8355C11.1573 12.0173 11.4091 12.1598 11.6795 12.2569C11.9597 12.3592 12.2562 12.4105 12.5548 12.4083C13.1049 12.4083 13.5409 12.3012 13.8631 12.087C14.1998 11.8569 14.4816 11.5552 14.6882 11.2036L17.1715 12.1871L17.1716 12.1873ZM14.6354 8.49276C14.58 7.97903 14.3273 7.50689 13.9306 7.17588C13.6038 6.9227 13.218 6.75677 12.8095 6.69367C12.401 6.63057 11.9832 6.67237 11.5952 6.81516C11.1046 7.00897 10.6909 7.35815 10.4175 7.8093C10.2918 8.0172 10.213 8.25001 10.1866 8.4915L14.6356 8.49276H14.6354ZM29.2304 4.6386V14.5561H26.3509V13.2314C26.0059 13.7376 25.5294 14.1401 24.9727 14.3955C24.3958 14.6625 23.7667 14.7975 23.1311 14.7904C22.4885 14.7991 21.852 14.6642 21.2683 14.3955C20.7041 14.1322 20.1979 13.7593 19.7791 13.2986C19.3444 12.819 19.006 12.2602 18.7823 11.6528C18.5365 10.9947 18.4135 10.2972 18.4192 9.59472C18.413 8.89573 18.5361 8.20162 18.7823 7.5474C19.0094 6.94121 19.3475 6.38263 19.7791 5.90022C20.196 5.43577 20.7026 5.06044 21.2683 4.79682C21.8515 4.5258 22.488 4.38859 23.1311 4.39524C23.765 4.3902 24.3929 4.51998 24.9727 4.77576C25.531 5.02168 26.0087 5.42009 26.3509 5.92524V4.6386H29.2304ZM21.3383 9.5976C21.3349 9.94247 21.4037 10.2842 21.5402 10.6009C21.6701 10.9032 21.8544 11.1789 22.084 11.4145C22.3205 11.6548 22.6025 11.8456 22.9135 11.9758C23.2244 12.1061 23.5582 12.1731 23.8954 12.1731C24.2325 12.1731 24.5663 12.1061 24.8773 11.9758C25.1882 11.8456 25.4702 11.6548 25.7067 11.4145C25.9359 11.1786 26.1203 10.9029 26.2507 10.6009C26.384 10.2832 26.4527 9.94215 26.4527 9.5976C26.4527 9.25306 26.384 8.91197 26.2507 8.59428C26.1203 8.2923 25.9359 8.0166 25.7067 7.78068C25.4705 7.54026 25.1887 7.34934 24.8778 7.21908C24.4093 7.02291 23.8928 6.97156 23.3948 7.07165C22.8969 7.17175 22.4403 7.41871 22.084 7.78068C21.8544 8.01626 21.6701 8.29205 21.5402 8.59428C21.4038 8.91102 21.335 9.25275 21.3383 9.5976ZM34.6048 1.7262V4.6386H37.121V7.047H34.6048V10.681C34.6048 11.2165 34.7224 11.5983 34.9573 11.8265C35.1923 12.0548 35.5536 12.1685 36.0412 12.1675C36.2313 12.1672 36.4206 12.1433 36.6048 12.0965C36.7931 12.0517 36.972 11.9737 37.1329 11.8661V14.3953C36.8616 14.5177 36.5785 14.6122 36.288 14.6772C35.8913 14.7636 35.486 14.8038 35.08 14.7969C34.0328 14.7969 33.2071 14.4927 32.6034 13.8845C31.9997 13.2761 31.6933 12.416 31.6845 11.3038V7.04682H30.2773V4.6386H31.6845V1.7262H34.6048ZM41.1082 14.5561H38.1681V0.501662H41.1082V5.90004C41.4049 5.42926 41.8171 5.04218 42.3056 4.77558C42.8434 4.49901 43.4424 4.36314 44.0469 4.38066C45.1912 4.38066 46.087 4.74228 46.7348 5.46552C47.3827 6.18894 47.7077 7.17948 47.7104 8.43732V14.5602H44.7718V9.09576C44.7718 8.45316 44.6173 7.95456 44.3083 7.59996C43.9994 7.24536 43.5632 7.06968 43 7.07328C42.7395 7.06245 42.4799 7.111 42.2409 7.21524C42.0019 7.31949 41.7898 7.47671 41.6205 7.67502C41.2789 8.07606 41.1082 8.61822 41.1082 9.30114V14.5561ZM58.5002 12.1873C58.0974 12.9894 57.4723 13.6586 56.6995 14.1151C55.9136 14.5836 54.977 14.8181 53.89 14.8181C53.1612 14.8268 52.4373 14.6972 51.7567 14.4362C51.1348 14.1965 50.5694 13.8307 50.0958 13.3618C49.6254 12.8888 49.2558 12.3253 49.0093 11.7054C48.7408 11.0358 48.6063 10.3201 48.6133 9.59868C48.6067 8.88674 48.7413 8.18054 49.0093 7.52094C49.259 6.90271 49.6282 6.33984 50.0958 5.86458C50.5607 5.39455 51.1151 5.02248 51.7262 4.77036C53.0453 4.24724 54.5144 4.24724 55.8335 4.77036C56.4363 5.01797 56.9798 5.39046 57.4283 5.86332C57.8814 6.34783 58.2336 6.9176 58.4645 7.53948C58.7192 8.22326 58.8459 8.94807 58.8382 9.6777C58.8382 9.8514 58.8382 9.999 58.8276 10.1187C58.8238 10.2132 58.8136 10.3074 58.7972 10.4006H51.4953C51.5178 10.6824 51.6001 10.9562 51.7369 11.2037C51.8707 11.4464 52.05 11.6609 52.265 11.8357C52.4878 12.0169 52.7394 12.1593 53.0095 12.2571C53.2899 12.3593 53.5863 12.4105 53.8848 12.4085C54.4358 12.4085 54.8723 12.3014 55.1945 12.0872C55.5312 11.8571 55.813 11.5554 56.0196 11.2037L58.5002 12.1873ZM55.9642 8.49276C55.9087 7.97905 55.6559 7.50696 55.2591 7.17606C54.9324 6.92282 54.5466 6.75685 54.1381 6.69374C53.7295 6.63064 53.3117 6.67249 52.9238 6.81534C52.4349 7.01045 52.0232 7.36 51.7514 7.81074C51.6263 8.01878 51.5475 8.25134 51.5203 8.49258H55.9642V8.49276ZM66.0096 7.48944C65.7732 7.39528 65.519 7.35393 65.2649 7.3683C64.4465 7.3683 63.8087 7.64964 63.3519 8.21232C62.8952 8.775 62.6672 9.54432 62.6681 10.5205V14.5561H59.7492V4.63878H62.647V6.2649C62.895 5.71394 63.293 5.24392 63.7956 4.9086C64.3055 4.57646 64.9035 4.40537 65.5119 4.41756C65.6159 4.41738 65.72 4.42404 65.8233 4.43736C65.8868 4.44276 65.9493 4.4559 66.0096 4.47696V7.48944ZM91.3576 5.0418V7.54146H96.2786V9.9324H91.3576V14.4967H88.4077V2.6046H96.7295V5.0418H91.3576ZM105.45 12.0591V14.4963H97.7031V2.6046H100.652V12.06H105.45V12.0593V12.0591ZM116.243 8.55036C116.243 12.4623 114.069 14.76 110.871 14.76C107.674 14.76 105.5 12.5082 105.5 8.55036C105.5 4.63824 107.674 2.38662 110.871 2.38662C114.069 2.38662 116.243 4.63824 116.243 8.55018V8.55036ZM113.123 8.53434C113.123 5.92614 112.238 4.96404 110.871 4.96404C109.522 4.96404 108.62 5.92614 108.62 8.53434C108.62 11.1737 109.521 12.1048 110.871 12.1048C112.238 12.1048 113.123 11.1742 113.123 8.53452V8.53434ZM126.809 2.6046L122.493 10.1497V14.4961H119.543V10.1497L115.228 2.6046H118.488L121.064 7.49466H121.22L123.765 2.6046H126.809ZM137.295 8.53452C137.295 12.105 135.339 14.4961 131.846 14.4961H127.266V2.6046H131.784C135.339 2.6046 137.295 4.97988 137.295 8.53452ZM134.252 8.53452C134.252 5.97312 133.197 5.18112 131.272 5.18112H130.216V11.9187H131.272C133.197 11.9194 134.252 11.1436 134.252 8.5347V8.53452ZM74.1508 6.71796L74.6928 6.17616L79.9423 11.4255L79.4003 11.9675L74.1508 6.71796Z" fill="white"></path>
    <path d="M79.401 6.24463L79.943 6.78661L74.6935 12.0361L74.1515 11.4943L79.401 6.24463Z" fill="white"></path>
  </symbol>

  <symbol xmlns="http://www.w3.org/2000/svg" viewBox="0 0 119.2 21.71" id="star">
    <g id="Layer_2">
      <g id="Layer_1-2">
        <path d="M23.2,8.29l-6.15,5.45,1.72,8L11.6,17.64,4.43,21.71l1.72-8L0,8.29l8.23-.85L11.6,0,15,7.44ZM39,7.44,35.6,0,32.23,7.44,24,8.29l6.15,5.45-1.72,8,7.17-4.07,7.17,4.07-1.72-8L47.2,8.29Zm24,0L59.6,0,56.23,7.44,48,8.29l6.15,5.45-1.72,8,7.17-4.07,7.17,4.07-1.72-8L71.2,8.29Zm24,0L83.6,0,80.23,7.44,72,8.29l6.15,5.45-1.72,8,7.17-4.07,7.17,4.07-1.72-8L95.2,8.29Zm32.23.85L111,7.44,107.6,0l-3.37,7.44L96,8.29l6.15,5.45-1.72,8,7.17-4.07,7.17,4.07-1.72-8Z"></path>
      </g>
    </g>
  </symbol>


  <symbol xmlns="http://www.w3.org/2000/svg" viewBox="0 0 28 20" id="mail">
    <path d="M14 8.81L26.78 0.6C26.2662 0.214614 25.6423 0.00430105 25 0H3C2.35774 0.00430105 1.73381 0.214614 1.22 0.6L14 8.81ZM14.54 10.84L14.37 10.92H14.29C14.1979 10.9611 14.1001 10.9881 14 11C13.917 11.0105 13.833 11.0105 13.75 11H13.67L13.5 10.92L0.0999999 2.26C0.0359781 2.50154 0.0023847 2.75013 0 3V17C0 17.7956 0.316071 18.5587 0.87868 19.1213C1.44129 19.6839 2.20435 20 3 20H25C25.7956 20 26.5587 19.6839 27.1213 19.1213C27.6839 18.5587 28 17.7956 28 17V3C27.9976 2.75013 27.964 2.50154 27.9 2.26L14.54 10.84Z" ></path>
  </symbol>
  <symbol xmlns="http://www.w3.org/2000/svg" viewBox="0 0 10 19" id="facebook">
    <path d="M5.349 18.914V9.444H8.668L9.192 6.306H5.35V4.733C5.35 3.913 5.635 3.133 6.883 3.133H9.379V0H5.836C2.858 0 2.045 1.846 2.045 4.406V6.305H0V9.445H2.044V18.915H5.349V18.914Z" ></path>
  </symbol>
  <symbol xmlns="http://www.w3.org/2000/svg" viewBox="0 0 18 18" id="in">
    <path fill-rule="evenodd" clip-rule="evenodd" d="M2.076 4.108C3.372 4.108 4.179 3.195 4.179 2.053C4.155 0.886999 3.372 0 2.102 0C0.831999 0 0 0.886999 0 2.053C0 3.195 0.807001 4.108 2.054 4.108H2.076ZM17.33 17.622V10.806C17.33 7.155 15.497 5.455 13.053 5.455C11.08 5.455 10.197 6.609 9.703 7.418V5.735H5.988C6.038 6.85 5.988 17.622 5.988 17.622H9.704V10.983C9.704 10.628 9.728 10.273 9.826 10.02C10.094 9.31 10.706 8.575 11.731 8.575C13.077 8.575 13.614 9.665 13.614 11.263V17.623L17.33 17.622ZM3.93 5.732V17.619H0.214V5.732H3.929H3.93Z" ></path>
  </symbol>
  <symbol xmlns="http://www.w3.org/2000/svg" viewBox="0 0 23 23" id="instagram">
    <path fill-rule="evenodd" clip-rule="evenodd" d="M11.134 0C8.114 0 7.729 0.0129997 6.544 0.0699997C5.359 0.129 4.552 0.315 3.846 0.598C3.09851 0.883348 2.42412 1.33192 1.872 1.911C1.30542 2.48359 0.867061 3.1701 0.586 3.925C0.309 4.645 0.12 5.475 0.0690002 6.679L0.066 6.755C0.018 7.906 0 8.34 0 11.363C0 14.445 0.0129997 14.831 0.0699997 16.047C0.126 17.257 0.309 18.081 0.586 18.801C0.862241 19.5583 1.30122 20.2458 1.872 20.815C2.42589 21.392 3.09978 21.8402 3.846 22.128C4.552 22.411 5.366 22.598 6.544 22.655C7.729 22.713 8.108 22.726 11.134 22.726C14.154 22.726 14.532 22.713 15.724 22.656C16.908 22.597 17.715 22.411 18.428 22.128C19.172 21.8399 19.8436 21.3916 20.395 20.815C20.9616 20.2424 21.3999 19.5559 21.681 18.801C21.952 18.081 22.141 17.257 22.198 16.047L22.201 15.971C22.249 14.82 22.267 14.386 22.267 11.363C22.267 8.281 22.255 7.895 22.197 6.679C22.141 5.469 21.952 4.646 21.681 3.925C21.4023 3.16891 20.9637 2.48191 20.395 1.911C19.8405 1.33479 19.1668 0.886672 18.421 0.598C17.709 0.315 16.902 0.128 15.717 0.0710001C14.532 0.0130001 14.153 0 11.134 0ZM10.142 2.042H11.138C14.107 2.042 14.46 2.055 15.633 2.106C16.717 2.157 17.303 2.344 17.701 2.499C18.218 2.704 18.589 2.949 18.981 3.348C19.371 3.747 19.611 4.126 19.812 4.654C19.964 5.053 20.147 5.658 20.197 6.764C20.247 7.961 20.26 8.322 20.26 11.352C20.26 14.382 20.248 14.743 20.197 15.94C20.147 17.047 19.964 17.645 19.812 18.05C19.6344 18.5414 19.3503 18.9874 18.98 19.356C18.59 19.756 18.224 20 17.7 20.206C17.31 20.36 16.717 20.546 15.633 20.598C14.46 20.65 14.107 20.663 11.138 20.663C8.168 20.663 7.815 20.65 6.643 20.598C5.558 20.547 4.972 20.36 4.575 20.206C4.08993 20.0224 3.65243 19.7318 3.295 19.356C2.92468 18.9874 2.64055 18.5414 2.463 18.05C2.311 17.651 2.129 17.047 2.078 15.94C2.028 14.743 2.015 14.383 2.015 11.352C2.015 8.322 2.028 7.962 2.078 6.764C2.128 5.658 2.311 5.059 2.463 4.654C2.665 4.126 2.904 3.747 3.295 3.348C3.685 2.948 4.058 2.704 4.575 2.498C4.965 2.344 5.558 2.158 6.643 2.106C7.67 2.055 8.067 2.042 10.141 2.042H10.142ZM15.739 5.302C15.739 4.548 16.338 3.937 17.075 3.937C17.813 3.937 18.412 4.548 18.412 5.301C18.412 6.054 17.812 6.665 17.075 6.665C16.338 6.665 15.739 6.054 15.739 5.301V5.302ZM11.129 5.532C7.97 5.532 5.417 8.144 5.417 11.362C5.417 14.585 7.977 17.191 11.129 17.191C14.287 17.191 16.841 14.578 16.841 11.361C16.841 8.138 14.287 5.531 11.129 5.531V5.532ZM14.841 11.354C14.841 9.264 13.183 7.571 11.134 7.571C9.085 7.571 7.427 9.263 7.427 11.354C7.427 13.445 9.085 15.138 11.134 15.138C13.184 15.138 14.841 13.445 14.841 11.354Z"></path>
  </symbol>
  <symbol xmlns="http://www.w3.org/2000/svg" viewBox="0 0 19 23" id="pinterest">
    <path fill-rule="evenodd" clip-rule="evenodd" d="M7.489 14.727C6.874 17.793 6.123 20.732 3.899 22.267C3.212 17.634 4.907 14.154 5.694 10.46C4.352 8.311 5.855 3.988 8.686 5.054C12.169 6.364 5.67 13.04 10.033 13.874C14.588 14.744 16.448 6.359 13.623 3.631C9.542 -0.306997 1.743 3.541 2.701 9.179C2.935 10.558 4.432 10.976 3.3 12.879C0.686997 12.327 -0.0920019 10.369 0.00799813 7.757C0.169998 3.482 4.048 0.489002 7.938 0.0750019C12.858 -0.448998 17.474 1.792 18.112 6.192C18.829 11.158 15.892 16.537 10.631 16.15C9.205 16.045 8.607 15.373 7.489 14.728V14.727Z" ></path>
  </symbol>
  <symbol xmlns="http://www.w3.org/2000/svg" viewBox="0 0 22 18" id="twiter">
    <path d="M19.589 5.0099C19.589 4.8179 19.585 4.6269 19.576 4.4379C20.4499 3.8247 21.2063 3.05915 21.809 2.1779C20.9898 2.52448 20.1237 2.74758 19.239 2.8399C20.1705 2.30294 20.8712 1.44129 21.207 0.419903C20.3258 0.922508 19.3654 1.27117 18.367 1.4509C17.9479 1.00196 17.4426 0.642161 16.8812 0.393019C16.3199 0.143877 15.7141 0.0105124 15.1 0.000903431C14.5163 -0.0109469 13.9361 0.0938871 13.3934 0.309256C12.8508 0.524625 12.3566 0.846191 11.9399 1.25509C11.5231 1.664 11.1923 2.152 10.9666 2.69048C10.741 3.22896 10.6252 3.80707 10.626 4.3909C10.626 4.7409 10.664 5.0809 10.742 5.4089C7.021 5.1829 3.723 3.3589 1.517 0.610903C1.11862 1.29476 0.909776 2.07247 0.912 2.8639C0.912 4.4239 1.702 5.8109 2.902 6.6289C2.18946 6.5985 1.49449 6.39828 0.875 6.0449V6.1019C0.87459 7.14048 1.23099 8.14768 1.88453 8.95486C2.53806 9.76205 3.44906 10.3202 4.465 10.5359C3.80531 10.7106 3.11443 10.7325 2.445 10.5999C2.72892 11.4925 3.28419 12.2743 4.03344 12.8364C4.78269 13.3986 5.68861 13.713 6.625 13.7359C5.03919 14.977 3.08171 15.648 1.068 15.6409C0.707 15.6409 0.35 15.6179 0 15.5769C2.04313 16.9001 4.42582 17.6031 6.86 17.6009C15.089 17.6029 19.589 10.8609 19.589 5.0109V5.0099Z" ></path>
  </symbol>

  <symbol fill="none" xmlns="http://www.w3.org/2000/svg" viewBox="0 0 51 88" id="window">
    <g clip-path="url(#clip0_1_1049)">
      <path d="M42.2074 6.17219C39.4457 8.5354 37.2303 11.4611 35.7123 14.75C34.1957 18.0367 33.4127 21.6092 33.4168 25.2235V68.906L0 87.9991V25.2235C0.0014221 20.3862 1.408 15.6516 4.05156 11.5859C6.69812 7.51606 10.4686 4.28599 14.9141 2.28026C19.3633 0.272351 24.3 -0.428071 29.1387 0.262092C33.9757 0.951266 38.5116 3.00253 42.2074 6.17219Z" fill="#E9672B"></path>
      <path d="M50.9995 25.2236V78.9279L33.4163 68.9071V25.2241C33.4121 21.6097 34.1951 18.037 35.7118 14.7502C37.2296 11.4613 39.4448 8.53559 42.2064 6.17236L42.4987 6.42032C45.1766 8.78174 47.3192 11.6791 48.7854 14.9213C50.2505 18.1614 51.0052 21.6729 50.9995 25.2236Z" fill="#A2D4C5"></path>
      <path d="M51 78.9285V88.0003H0L33.4168 68.9072L51 78.9285Z" fill="#AF4920"></path>
    </g>
    <defs>
      <clipPath id="clip0_1_1049">
        <rect width="51" height="88" fill="white"></rect>
      </clipPath>
    </defs>
  </symbol>
</svg>
