<svg width="28" height="20" viewBox="0 0 28 20" fill="none" xmlns="http://www.w3.org/2000/svg">
<path d="M14 8.81L26.78 0.6C26.2662 0.214614 25.6423 0.00430105 25 0H3C2.35774 0.00430105 1.73381 0.214614 1.22 0.6L14 8.81ZM14.54 10.84L14.37 10.92H14.29C14.1979 10.9611 14.1001 10.9881 14 11C13.917 11.0105 13.833 11.0105 13.75 11H13.67L13.5 10.92L0.0999999 2.26C0.0359781 2.50154 0.0023847 2.75013 0 3V17C0 17.7956 0.316071 18.5587 0.87868 19.1213C1.44129 19.6839 2.20435 20 3 20H25C25.7956 20 26.5587 19.6839 27.1213 19.1213C27.6839 18.5587 28 17.7956 28 17V3C27.9976 2.75013 27.964 2.50154 27.9 2.26L14.54 10.84Z" fill="black"/>
</svg>
