<svg width="22" height="18" viewBox="0 0 22 18" fill="none" xmlns="http://www.w3.org/2000/svg">
<path d="M19.589 5.0099C19.589 4.8179 19.585 4.6269 19.576 4.4379C20.4499 3.8247 21.2063 3.05915 21.809 2.1779C20.9898 2.52448 20.1237 2.74758 19.239 2.8399C20.1705 2.30294 20.8712 1.44129 21.207 0.419903C20.3258 0.922508 19.3654 1.27117 18.367 1.4509C17.9479 1.00196 17.4426 0.642161 16.8812 0.393019C16.3199 0.143877 15.7141 0.0105124 15.1 0.000903431C14.5163 -0.0109469 13.9361 0.0938871 13.3934 0.309256C12.8508 0.524625 12.3566 0.846191 11.9399 1.25509C11.5231 1.664 11.1923 2.152 10.9666 2.69048C10.741 3.22896 10.6252 3.80707 10.626 4.3909C10.626 4.7409 10.664 5.0809 10.742 5.4089C7.021 5.1829 3.723 3.3589 1.517 0.610903C1.11862 1.29476 0.909776 2.07247 0.912 2.8639C0.912 4.4239 1.702 5.8109 2.902 6.6289C2.18946 6.5985 1.49449 6.39828 0.875 6.0449V6.1019C0.87459 7.14048 1.23099 8.14768 1.88453 8.95486C2.53806 9.76205 3.44906 10.3202 4.465 10.5359C3.80531 10.7106 3.11443 10.7325 2.445 10.5999C2.72892 11.4925 3.28419 12.2743 4.03344 12.8364C4.78269 13.3986 5.68861 13.713 6.625 13.7359C5.03919 14.977 3.08171 15.648 1.068 15.6409C0.707 15.6409 0.35 15.6179 0 15.5769C2.04313 16.9001 4.42582 17.6031 6.86 17.6009C15.089 17.6029 19.589 10.8609 19.589 5.0109V5.0099Z" fill="black"/>
</svg>
