<svg width="18" height="18" viewBox="0 0 18 18" fill="none" xmlns="http://www.w3.org/2000/svg">
<path fill-rule="evenodd" clip-rule="evenodd" d="M2.076 4.108C3.372 4.108 4.179 3.195 4.179 2.053C4.155 0.886999 3.372 0 2.102 0C0.831999 0 0 0.886999 0 2.053C0 3.195 0.807001 4.108 2.054 4.108H2.076ZM17.33 17.622V10.806C17.33 7.155 15.497 5.455 13.053 5.455C11.08 5.455 10.197 6.609 9.703 7.418V5.735H5.988C6.038 6.85 5.988 17.622 5.988 17.622H9.704V10.983C9.704 10.628 9.728 10.273 9.826 10.02C10.094 9.31 10.706 8.575 11.731 8.575C13.077 8.575 13.614 9.665 13.614 11.263V17.623L17.33 17.622ZM3.93 5.732V17.619H0.214V5.732H3.929H3.93Z" fill="black"/>
</svg>
