<svg width="23" height="23" viewBox="0 0 23 23" fill="none" xmlns="http://www.w3.org/2000/svg">
<path fill-rule="evenodd" clip-rule="evenodd" d="M11.134 0C8.114 0 7.729 0.0129997 6.544 0.0699997C5.359 0.129 4.552 0.315 3.846 0.598C3.09851 0.883348 2.42412 1.33192 1.872 1.911C1.30542 2.48359 0.867061 3.1701 0.586 3.925C0.309 4.645 0.12 5.475 0.0690002 6.679L0.066 6.755C0.018 7.906 0 8.34 0 11.363C0 14.445 0.0129997 14.831 0.0699997 16.047C0.126 17.257 0.309 18.081 0.586 18.801C0.862241 19.5583 1.30122 20.2458 1.872 20.815C2.42589 21.392 3.09978 21.8402 3.846 22.128C4.552 22.411 5.366 22.598 6.544 22.655C7.729 22.713 8.108 22.726 11.134 22.726C14.154 22.726 14.532 22.713 15.724 22.656C16.908 22.597 17.715 22.411 18.428 22.128C19.172 21.8399 19.8436 21.3916 20.395 20.815C20.9616 20.2424 21.3999 19.5559 21.681 18.801C21.952 18.081 22.141 17.257 22.198 16.047L22.201 15.971C22.249 14.82 22.267 14.386 22.267 11.363C22.267 8.281 22.255 7.895 22.197 6.679C22.141 5.469 21.952 4.646 21.681 3.925C21.4023 3.16891 20.9637 2.48191 20.395 1.911C19.8405 1.33479 19.1668 0.886672 18.421 0.598C17.709 0.315 16.902 0.128 15.717 0.0710001C14.532 0.0130001 14.153 0 11.134 0ZM10.142 2.042H11.138C14.107 2.042 14.46 2.055 15.633 2.106C16.717 2.157 17.303 2.344 17.701 2.499C18.218 2.704 18.589 2.949 18.981 3.348C19.371 3.747 19.611 4.126 19.812 4.654C19.964 5.053 20.147 5.658 20.197 6.764C20.247 7.961 20.26 8.322 20.26 11.352C20.26 14.382 20.248 14.743 20.197 15.94C20.147 17.047 19.964 17.645 19.812 18.05C19.6344 18.5414 19.3503 18.9874 18.98 19.356C18.59 19.756 18.224 20 17.7 20.206C17.31 20.36 16.717 20.546 15.633 20.598C14.46 20.65 14.107 20.663 11.138 20.663C8.168 20.663 7.815 20.65 6.643 20.598C5.558 20.547 4.972 20.36 4.575 20.206C4.08993 20.0224 3.65243 19.7318 3.295 19.356C2.92468 18.9874 2.64055 18.5414 2.463 18.05C2.311 17.651 2.129 17.047 2.078 15.94C2.028 14.743 2.015 14.383 2.015 11.352C2.015 8.322 2.028 7.962 2.078 6.764C2.128 5.658 2.311 5.059 2.463 4.654C2.665 4.126 2.904 3.747 3.295 3.348C3.685 2.948 4.058 2.704 4.575 2.498C4.965 2.344 5.558 2.158 6.643 2.106C7.67 2.055 8.067 2.042 10.141 2.042H10.142ZM15.739 5.302C15.739 4.548 16.338 3.937 17.075 3.937C17.813 3.937 18.412 4.548 18.412 5.301C18.412 6.054 17.812 6.665 17.075 6.665C16.338 6.665 15.739 6.054 15.739 5.301V5.302ZM11.129 5.532C7.97 5.532 5.417 8.144 5.417 11.362C5.417 14.585 7.977 17.191 11.129 17.191C14.287 17.191 16.841 14.578 16.841 11.361C16.841 8.138 14.287 5.531 11.129 5.531V5.532ZM14.841 11.354C14.841 9.264 13.183 7.571 11.134 7.571C9.085 7.571 7.427 9.263 7.427 11.354C7.427 13.445 9.085 15.138 11.134 15.138C13.184 15.138 14.841 13.445 14.841 11.354Z" fill="black"/>
</svg>
