<svg width="19" height="23" viewBox="0 0 19 23" fill="none" xmlns="http://www.w3.org/2000/svg">
<path fill-rule="evenodd" clip-rule="evenodd" d="M7.489 14.727C6.874 17.793 6.123 20.732 3.899 22.267C3.212 17.634 4.907 14.154 5.694 10.46C4.352 8.311 5.855 3.988 8.686 5.054C12.169 6.364 5.67 13.04 10.033 13.874C14.588 14.744 16.448 6.359 13.623 3.631C9.542 -0.306997 1.743 3.541 2.701 9.179C2.935 10.558 4.432 10.976 3.3 12.879C0.686997 12.327 -0.0920019 10.369 0.00799813 7.757C0.169998 3.482 4.048 0.489002 7.938 0.0750019C12.858 -0.448998 17.474 1.792 18.112 6.192C18.829 11.158 15.892 16.537 10.631 16.15C9.205 16.045 8.607 15.373 7.489 14.728V14.727Z" fill="black"/>
</svg>
