<?xml version="1.0" encoding="utf-8"?><svg viewBox="0 0 264 180" xmlns="http://www.w3.org/2000/svg" xmlns:xlink="http://www.w3.org/1999/xlink"><style>:root>svg{display:none}:root>svg:target{display:block}</style><svg class="ahidden" viewBox="0 0 0 0" id="sprite"/><svg viewBox="0 0 264 180" id="stress-icon" xmlns="http://www.w3.org/2000/svg"><path fill-rule="evenodd" clip-rule="evenodd" d="M159.384 36.056c19.158 19.643 34.003 47.599 29.943 73.358-4.06 25.803-27.025 49.365-54.007 61.383s-57.939 12.535-81.2-.043c-23.26-12.621-38.865-38.337-47.535-68.232-8.712-29.894-10.446-63.881 5.16-82.662C27.35 1.079 60.295-2.453 88.504 1.38c28.208 3.877 51.68 15.077 70.88 34.676z" fill-opacity=".9"/><path fill-rule="evenodd" clip-rule="evenodd" d="M228.627 99.349c1.168-.765 3.601 2.723 2.544 3.944-.863 1.255-3.456-3.09-2.544-3.944zm-4.138-1.387c.689.357 1.136.666.585 1.486-3.521.719-2.132-3.729-.585-1.486zm-3.436-7.23c1.457-.21 3.34 1.299 2.094 2.446-.631-.087-1.202-.3-1.964-.019-2.414.504-2.978-2.449-.13-2.428zm-1.405 6.202c.95 1.355.858 3.417.711 5.25-1.784-.394-1.454-4.132-.711-5.25zm-6.276-4.967c-1.249-.116-2.325-1.838-1.109-2.891 1.322-.673 3.791.781 3.789 2.29-.086 1.503-1.381.946-2.68.6zm-4.739-12.1c.902.296 2.561 3.759 1.608 4.519-1.273.64-2.785-3.76-1.608-4.518zm-6.344 3.78c.904-2.577 3.886 1.98 3.173 3.424-1.176 1.006-3.284-2.143-3.173-3.423zm.916-8.685c1.425 1.873-.958 3.036-2.484 3.634-3.529.84 1.161-4.821 2.484-3.634zm-7.23-1.028c-.865-1.82 1.379-5.127 1.335-1.913-.459.721-.206 4.874-1.335 1.913zm-3.33-4.269c-.072-1.67 1.539-2.45 1.354.057-.303 1.349-1.154 1.896-1.354-.057zm.32-7.155c.207.668.227 1.303-.546 1.542-6.331 2.896-.734-4.179.546-1.542zm-2.887-5.61c1.21.682 2.011 3.526-.178 2.182-1.516-.403-2.778-.614-4.478-.963-3.29-2.417 3.174-2.86 4.656-1.218zm-7.257 29.487c-1.436-2.725 1.895-2.137 3.424-1.547 2.376 1.817-2.172 2.32-3.424 1.547zm.061-24.4c-.909-.169-1.788-.777-2.969-.648-1.884-4.154 4.503-2.17 2.969.648zm-2.217 2.528c1.701-1.175.726 4.234.045 4.996-2.458 2.712-.619-4.094-.045-4.996zm14.873 32.657c-.522 2.857-2.359 5.173-1.627.537.1-1.702 2.204-3.43 1.627-.537zm-21.746-40.041c.674-2.367 1.769-4.208 2.679-6.602 1.027.953 1.333 2.644.525 4.012-.507.817-2.97 5.908-3.204 2.59zm.323 7.752c-.274 1.122.824 2.331.363 3.196-3.122.344-1.728-8.665-.363-3.196zm-6.864-18.008c1.375.001 5.392-.462 4.385 1.683-1.523.228-7.146.977-4.385-1.683zm.686 5.039c.927.421 2.315 1.97 1.46 2.959-1.429.38-2.811-2.086-1.46-2.96zm.181 18.055c-.139.706.183 3.867-1.211 3.425-1.103-2.433-.046-7.857 2.303-3.328l-1.092-.097zm-.809-6.991c.244.57-.682 1.908-1.239 1.028-.477-.647.615-2.723 1.239-1.028zm-5.05-9.449c1.351 1.943 3.672 2.937 5.455 4.8 1.777 3.356-3.268.669-4.199-.533-.849-.718-3.188-3.712-1.256-4.267zm-3.922 15.535c1.299-1.259 4.196-3.754 2.825-.093-.621 1.081-3.386 2.642-2.825.093zm2.507-5.492c-1.546-.965-2.471.617-3.946.79-1.569-2.613 4.811-4.343 3.946-.79zm-7.917-8.181c1.142.682 3.854 2.707 2.819 3.995-1.388-.443-4.015-2.666-2.819-3.995zm-7.532 25.484c.106-.924 1.562-1.267 1.077.253.435.564 1.39 1.268 1.144 2.356-.921 1.671-3.033-1.277-2.221-2.609zm-.5-7.363c2.353 1.008.419 2.255-1.328 2.316-1.101-1.236-.296-2.663 1.328-2.316zm.265-23.877c-2.248-2.463 5.023-1.826 4.293.396-1.276-.462-2.8.057-4.293-.396zm80.706 39.949c-3.636-3.719-8.177-5.953-11.671-9.8-12.163-13.995-8.141-8.941-13.576-9.418-1.194-1.07.175-2.195 1.669-1.865-6.097-10.139-12.69-13.817-18.916-20.257-.725-1.073-1.838 1.892-3.019 0-.814-1.021 1.279-1.514.514-2.308-3.3-3.645-2.009-2.206-5.065-.056-.901-1.135-.168-2.096.887-2.98-2.121.19-1.549-1.263-2.861-1.595-4.793.794-9.055 2.988-13.835 3.191-1.711.594-1.934 4.28-2.641 5.855-1.509.739-1.099-4.315-.454-5.107-.343-.002-1.571-1.124-3.072-.893-16.703-.617-19.547-2.481-13.175 7.563.675 2.012 3.368.564 4.416 2.113.31.827-.449.895-1.271.82l.335.424c-2.064 1.839 1.888 3.628 2.763 5.438.984 1.343 1.297 4.136 3.328 2.778.314 1.097 1.836.088 2.855.285 1.11.878-.41 1.959-1.438 2.104.883.84-.411 1.423-.202 2.551 1.319 1.954 3.419 10.015-.828 6.963-1.427-1.607.352-2.297 2.018-1.906.122-.768-.21-1.86-.559-2.748-1.062.85-2.775 1.065-1.846-1.225-1.953.458-4.251.925-6.484.936 1.343 2.995-1.897 1.802-2.761.039-.697-.174-2.251-.294-3.238-.34.683 2.518 2.457 5.735 3.238 8.56.904-.86 2.697.533 1.867 1.35 0 0-1.338.615-1.867.732.922 2.486.943 17.399 1.867 13.451.22-1.752 2.359-3.556 1.33-4.591-2.278-1.849.776-3.036 1.54-.934 1.784-2.075 4.553-3.466 5.723-6.215 1.143.65 1.722-.327 2.344-1.71.481.998 2.295.959 2.824-.231.432-.96-.324-1.425.989-2.055 1.301-.62.72-2.084 1.592-3.417.738-.54 1.164 1.316.765 2.035.54.216 1.274-1.003 1.827-.39 3.184.963 6.857-.21 10.128-.632 1.273-.271 4.256 5.011 5.338 6.4 3.1-4.249 3.81-1.06 1.276 1.148 2.109 2.445 4.811 5.927 6.903 8.713-.279-1.666 2.334-4.24 2.566-2.394-1.796 2.592 1.114 6.438 2.331 8.46.749 1.132 1.381 2.466 1.863 3.758 2.117-.695 4.948-1.964 7.049-3.38-1.198-.786-.147-1.873 1.295-1.317-.661-.631.201-1.375-.102-2.446-.747-1.681-2.236-2.304-3.838-2.797-2.738 3.15-6.933-1.816-.646-.9-1.208-1.618-3.154-4.52-5.084-5.227-1.936.49-4.246-1.271-1.528-2.177-1.921-1.991-.446-2.55-1.405-3.83-.745-1.017-2.389-1.898-2.857-3.336-.018-1.389-1.447-3.107.669-3.416-.771.151-.264-5.853.875-3.56.661.83-.708 4.056.924 3.045.411 2.247 1.153 1.966 2.544 2.547.517.607 1.047 1.38 1.706 2.15 1.337-2.258 4.835-1.887 3.42.91-.412-.417-.806-.168-1.485.255 4.545 4.55 7.386 9.284 11.172 11.97 3.786 2.685 6.689 5.929 10.731 8.367 1.502 4.267.709 5.495 5.386 6.381.9 1.45 1.043 2.811 2.545 2.087.18.311.576.633.935 1.161.08-1.17 2.725-5.293 3.109-2.336-.857 1.034-1.675 3.075-2.524 4.2.625 1.325 1.719 2.987 1.911 4.74 1.958-1.636 4.221-4.052 6.224-5.411-.117-.77.008-1.497.402-2.354.977 3.425 1.074.393 2.889.918.515.398 1.264.012 1.937-.084.173-.639.79-1.547.004-2.389-2.924-7.552-8.71-11.215-12.575-16.371z"/><path fill-rule="evenodd" clip-rule="evenodd" d="M203.433 111.872c.472-.413-.275-1.736-.276-2.715.191-3.482 2.903 4.136 5.308 3.588-.971-1.037-1.389-3.624-2.811-2.816 1.386-.923-.328-3.487 1.3-4.664-.882-.386-2.635-2.983-3.392-1.568l-1.948-2.776c-.815.952-3.515.756-3.543 2.295.146.78 1.25 1.651.169 2.262.515 1.884.872 4.373 2.334 6.087-.173-5.639 1.257-2.523 2.859.307zm30.206.401c1.262 1.158 5.438 4.963 4.327 5.672-1.536.475-.957 1.897-1.141 3.447 2.059-2.639 1.87 1.982 2.455 3.321.638 1.939 1.978 3.091 3.421 4.704-3.135-9.942-.371-3.889 3.803-.835-.305-1.501-1.413-2.966-2.616-4.191-1.953-4.573 4.2 3.394 5.699 2.895-.574-.918-.514-2.567-1.596-3.279-2.552-1.387-4.074-4.015-5.404-6.779-2.348-1.46-2.281-5.083-4.143-7.661-1.43.229-3.271 1.807-4.805 2.706zm-102.028 15.096c.307-1.896.763-4.106 1.15-6.144-.689-4.097-1.05-7.891-1.365-12.175-1.219-7.244.185-9.943-7.082-10.39-.832-.048-.556 2.14-.806 3.078-.627.766-.325 1.463-.729 2.408-.466.772.686 1.864.982 2.904 3.457 6.506 3.047 13.832 6.185 20.537.069-.795.904-.879 1.665-.218zm50.963-79.317c-1.421-1.504-3.057-3.33-4.76-4.885-5.109-1.008-10.227 1.01-15.458 2.33-7.77 1.657-18.32 1.041-24.197-.995-.088 4.193 3.471 7.489 5.821 10.935 5.728 7.39 12.825 15.892 10.477 25.108 14.729-11.208 24.24-2.412 34.866-8.833.545.693.18 1.316-.026 2.35 2.024 2.544 4.624 5.154 7.282 7.414 12.587 12.414 27.773 20.929 30.592 32.841 3.722-2.748 7.533-6.852 11.109-5.987-6.189-12.498-19.123-20.057-28.459-30.259-2.6-2.896-4.812-5.5-7.207-8.725-6.471-10.984-13.685-14.658-20.04-21.294zm31.485.83c-3.452-.483-4.092-.479-6.598-2.774-.894 2.922-4.558-.57-2.656 4.917-1.811 1.714-2.296-1.464-1.642-2.915-5.426.037-1.002 5.309-.169 8.008-1.283 1.66-2.975-1.166-3.271-2.532-2.099.64-4.328.974-6.65 1.523 17.08 15.1 5.555 12.328 15.122 7.575.547-.42.047-1.421.998-2.012.377-.224.757-.062.962.54 1.054 5.571 5.339 1.142 1.671-1.314.018-.91 1.695-.402 1.537-1.506-.024-4.224 3.284-7.47 6.126-10.42l-1.099-.22.56.527c-.848.589-1.779.323-2.508.71-.205 1.596-.792 2.312-1.905 2.204l.477-2.224a4.004 4.004 0 00-.955-.087zM143.5 70.486c-1.654.194-3.323-.055-5.213-.022 4.677 10.21 3.409 15.833 4.208 23.775 1.58-6.05 6.786-7.827 8.853-13.06 1.456-3.233 1.72-6.472.625-10.023-.213-.71-.698-1.74-1.688-1.338-2.163.784-4.387.582-6.785.668zm-.989-2.473c2.479.186 5.14.318 7.865-.142-1.482-2.603-2.941-5.035-4.966-7.519-12.009-14.967-4.619-12.915-11.705-12.78 4.094 6.07 5.332 13.207 5.021 20.44h3.785zm45.327 26.005c7.013 8.119 1.695 9.027 9.613 5.719.847-.977 3.869-1.04 2.722-2.58-3.054-4.938-6.98-8.832-11.043-13.197-5.702-7.418-3.178-7.39-7.504-6.574-2.432.473-4.587-.07-7.19.462 4.176 5.405 9.059 10.602 13.402 16.17zm10.314-41.47c.2-.04.4-.082.56-.115-1.764-5.932 3.583-5.864 7.294-6.555.332-.81.521-1.544 1.765-1.573 3.257 1.906 2.404 2.48 6.708 2.913 1.081.17 1.772.48 3.064.467.428-.33.794-.81 1.525-.895 4.656-.416 8.887 2.914 10.298 7.293 1.092 2.643-.001 5.447-.988 8.067 1.51 4.239 14.152 4.143 9.343 10.893 6.536 3.498 12.956 7.856 17.961 13.662 2.457 3.046 5.763 10.01-.406 10.351-.851-.04-2.293.407-2.31 1.714.228 2.197 1.952 3.372 2.766 5.548 8.249 16.891-9.983 6.876-16.543 2.262.239.703.625 1.638.863 2.46-.219.394-.369.369.241.983 2.174 2.461 2.506 5.332 4.729 7.855 1.138 2.684 8.94 6.007 5.457 8.408 1.323 3.551-.412 3.379-2.903 1.514 1.766 4.16-1.125 2.74-3.326.84 3.318 11.52-6.67.268-6.932-4.041-3.075 2.756-3.313-1.463-2.843-3.788-.089-.719.858-1.433-.018-1.891 1.048-1.271.235-3.455-.959-4.818-1.237-2.992-4.67 2.37-7.029 1.811-2.083-2.607-3.96-6.256-6.108-9.445-1.413 5.054-5.649 7.089-8.698 1.695-1.71-4.427-1.208-9.105-4.557-12.892-4.099-5.755-9.366-10.13-14.486-15.093-5.697-5.738-2.372-6.348-7.199-3.682 5.225 7.153 13.587 12.354 17.059 20.872.141 1.071.121 1.912 1.037 2.789.924 1.925 2.53 2.627 4.174 3.872 1.433 1.266 2.118 3.651-.649 3.338.912 2.441 3.289 4.285 4.14 6.849 1.102 3.868-5.245-.619-6.111-1.698.294 2.887-.912 2.905-2.487.428.371 4.811-3.477-.821-3.952-2.464-1.002-2.215-.682-4.437-2.039-6.563-.611-1.071-3.469.715-4.544.645-1.325-.202-4.549-1.961-1.536-2.528-4.782-8.572-12.835-15.07-17.291-23.995-6.207-1.522-13.68 2.564-18.946 6.399-13.684 11.502-9.101 15.298-12.784 12.35-3.467-5.337-.983-11.957-2.437-18.004-.408-2.05-1.203-5.011-2.401-6.572-.493.042-.822.183-1.104-.466-.241-1.19-.771-1.024-1.897-.52-2.041.763-3.538 1.39-5.815 1.548-10.767-.093-21.147-1.215-31.997-2.319 9.463 6.501 13.484 13.06 19.87 18.536 6.931 6.544 8.57 4.522 8.071 8.037 1.9.932 6.17-.493 7.296 2.594 3.102 8.244 2.368 17.265 3.825 26.016-1.892-.296-.126 5.669-3.149 3.811-1.696 5.194-5.677-6.463-5.797-7.776-1.071-5.156-1.718-10.279-3.664-15.331-.563.554-.853 2.464-2.251 1.773-3.997-1.683-7.792-3.868-11.683-6.147-9.915-5.055-18.836-11.502-26.555-19.495-4.34-4.405-10.272-8.867-9.523-15.848.826-7.175 20.844-12.891 24.82-14.615 6.04-3.061 35.301-11.481 35.914-6.085 1.415.218 1.456-1.316 2.445-2.151.606-.6 1.18.012 1.625-1.002 6.214.753 12.648.865 19.104.618 6.856.023 12.538-4.14 19.542-2.877 6.165 2.838 10.139 10.11 16.388 13.529 1.896-.704 3.765-1.5 6.033-1.495z"/><path fill-rule="evenodd" clip-rule="evenodd" d="M77.313 124.104c-.901 5.79-2.14 6.062-6.118 9.52-3.918 4.439-8.804 8.172-12.034 13.367 7.27-6.659 17.732-5.816 20.904-10.415 1.511-2.361 1.514-4.989 1.737-7.872 1.174-6.168-.18-3.515-4.489-4.6zm-1.093-.279c-.687-.789-.811.681-1.692.063-.604-2.876.378-6.054.45-9.185 1.094-10.495 3.051-20.59 7.887-30.154 16.222 14.377 14.595 7.707 9.824 18.816-2.115 3.045-3.059 6.307-4.324 9.936-1.371 3.805-3.26 7.001-2.816 11.34-.193.978-1.703-.398-1.64.82-.297 3.701-.127 7.29-1.315 10.971-1.136 2.761-3.328 4.68-6.45 5.292-6.482 2.225-12.599 3.924-17.823 8.978-7.078.98 4.055-12.633 5.971-13.637 6.676-7.509 10.996-8.652 11.928-13.24zm66.095-80.803l-1.664-.143 1.664.143zm-16.432 29.752l1.04.014-1.04-.014zm1.664-28.693c-.414.235-.829.309-1.248.02l1.248-.02zm3.536.162c-.416-.04-.832-.077-1.248-.116l1.248.116zm82.579 2.683l-1.248-.134 1.248.134zm7.904-.206zm-23.504 5.69l-1.041.008 1.041-.008zm-73.427-7.942l-1.04.01c.345-.25.692-.211 1.04-.01zm9.397 71.311l-.074-1.029.074 1.029zm-5.653-43.197c.209-.004.417-.01.624-.013l-.624.013zm121.684 56.568l.625.002-.625-.002zM115.69 45.97l-.832.133.832-.133zm-4.368 25.995l.624-.013-.624.013zm61.226-31.775l-.891.007.891-.007zm-30.025 27.582l1.041.144-1.041-.144zm72.179-19.055l-.624-.012.624.012zm-1.872.406c-.522 1.03-1.979.778-.784 2.288 1.208 1-.407 1.574-1.266.947-1.64-1.639.088-3.276 2.05-3.235z"/></svg></svg>